# Blender v2.79 (sub 0) OBJ File: 'untitled.blend'
# www.blender.org
mtllib untitled.mtl
o Cone_Cone.002
v 0.000000 0.006194 -1.000000
v 0.000000 1.506194 -0.600000
v 0.866025 0.006194 0.500000
v 0.519615 1.506194 0.300000
v -0.866025 0.006194 0.500000
v -0.519615 1.506194 0.300000
v -0.003514 3.041478 -0.026976
vn 0.8584 0.1322 -0.4956
vn -0.0000 0.1322 0.9912
vn -0.0000 0.2083 0.9781
vn -0.8584 0.1322 -0.4956
vn 0.0000 -1.0000 0.0000
vn -0.8516 0.1816 -0.4917
vn 0.8510 0.1853 -0.4913
usemtl None
s off
f 2//1 3//1 1//1
f 4//2 5//2 3//2
f 4//3 7//3 6//3
f 6//4 1//4 5//4
f 1//5 3//5 5//5
f 6//6 7//6 2//6
f 2//7 7//7 4//7
f 2//1 4//1 3//1
f 4//2 6//2 5//2
f 6//4 2//4 1//4
